<?xml version="1.0" standalone="no"?>
<!DOCTYPE svg PUBLIC "-//W3C//DTD SVG 20010904//EN"
 "http://www.w3.org/TR/2001/REC-SVG-20010904/DTD/svg10.dtd">
<svg version="1.0" xmlns="http://www.w3.org/2000/svg"
 width="720.000000pt" height="720.000000pt" viewBox="0 0 720.000000 720.000000"
 preserveAspectRatio="xMidYMid meet">
<metadata>
Created by potrace 1.14, written by Peter Selinger 2001-2017
</metadata>
<g transform="translate(0.000000,720.000000) scale(0.100000,-0.100000)"
fill="#000000" stroke="none">
<path d="M2199 5996 c-2 -2 -42 -7 -89 -10 -142 -11 -271 -28 -463 -62 -122
-21 -295 -64 -432 -107 -55 -17 -102 -32 -105 -32 -3 -1 -12 -4 -20 -8 -8 -3
-49 -17 -90 -32 -210 -76 -484 -207 -585 -280 -68 -49 -107 -103 -107 -147 0
-18 8 -60 16 -92 15 -56 15 -62 -2 -95 -12 -23 -42 -51 -83 -77 -88 -58 -135
-107 -174 -184 -59 -118 -79 -275 -50 -406 15 -70 29 -104 69 -164 53 -79 138
-138 247 -171 41 -12 77 -24 82 -26 4 -2 -4 -19 -18 -37 -94 -124 -110 -329
-33 -453 l19 -32 -34 -31 c-112 -98 -83 -242 60 -296 49 -19 52 -26 19 -43
-30 -17 -66 -80 -66 -118 0 -16 9 -46 20 -68 11 -22 20 -40 20 -41 0 0 -18 -6
-40 -13 -22 -6 -49 -21 -60 -33 -17 -18 -18 -24 -6 -47 21 -39 103 -94 165
-111 22 -5 20 -8 -22 -24 -27 -10 -49 -25 -52 -37 -16 -50 89 -135 222 -180
l63 -21 -20 -25 c-22 -28 -15 -52 24 -87 42 -36 205 -96 264 -96 23 0 23 0 -5
-24 -24 -21 -26 -27 -18 -52 24 -69 195 -132 358 -134 l48 0 -21 -22 c-27 -29
-26 -79 2 -105 13 -11 43 -28 68 -38 50 -19 188 -29 224 -15 18 7 31 1 67 -27
94 -74 204 -106 389 -112 29 -1 37 -6 49 -33 56 -126 238 -210 342 -157 l36
18 48 -46 c26 -25 75 -58 109 -74 68 -32 174 -46 208 -28 17 9 25 6 52 -19 17
-16 49 -35 70 -42 49 -16 161 -8 203 13 30 16 33 16 45 -2 55 -78 308 -98 459
-36 12 4 18 0 22 -17 9 -33 63 -95 110 -125 30 -19 58 -26 116 -30 75 -5 77
-5 124 31 26 20 47 33 47 28 0 -4 15 -17 33 -29 71 -48 219 -39 305 19 l44 29
33 -21 c89 -55 223 -51 320 11 l47 30 36 -23 c52 -32 195 -33 263 -2 62 29
116 79 124 114 8 35 3 35 85 13 59 -16 92 -19 172 -15 15 1 39 13 54 26 26 22
27 25 14 55 -7 17 -30 46 -50 64 l-38 32 96 2 c203 4 313 63 258 139 -9 12
-11 23 -5 31 6 6 14 25 18 41 12 39 -21 112 -74 165 l-38 38 25 25 25 26 32
-58 c56 -98 112 -134 203 -129 84 4 175 53 263 140 70 69 138 178 149 238 2
15 7 31 11 37 4 6 7 46 7 89 2 121 -28 199 -137 361 -50 74 -109 165 -132 201
l-41 65 29 20 c16 10 37 35 47 56 l17 36 129 -93 c173 -125 226 -149 336 -149
104 -1 137 6 214 47 117 62 218 189 232 291 19 132 -83 209 -391 295 -177 49
-335 91 -360 96 -117 21 -203 32 -253 34 -28 1 -34 6 -49 44 -18 45 -95 196
-146 287 -29 53 -65 111 -133 215 -17 28 -35 66 -38 86 -8 47 -39 86 -82 104
-19 8 -34 18 -34 23 0 4 -8 17 -18 28 -10 10 -24 28 -32 40 -18 26 -90 112
-150 179 -54 61 -308 315 -370 371 -329 294 -758 561 -1155 719 -38 15 -83 33
-100 40 -162 69 -596 179 -830 211 -27 3 -58 8 -67 10 -9 1 -52 6 -95 9 -43 4
-87 9 -98 12 -23 6 -591 14 -596 9z"/>
</g>
</svg>
